<svg xmlns="http://www.w3.org/2000/svg" viewBox="0 0 640 900" role="img" aria-label="个人头像占位图">
  <rect width="640" height="900" fill="#e4ecdf"/>
  <path d="M0 720 C160 640 260 775 408 680 C504 620 578 630 640 670 L640 900 L0 900 Z" fill="#1f7a63"/>
  <path d="M0 0 L640 0 L640 265 C504 245 418 325 308 276 C202 230 112 112 0 156 Z" fill="#b44c43"/>
  <circle cx="320" cy="335" r="112" fill="#f1caa4"/>
  <path d="M198 334 C198 238 250 172 324 172 C402 172 455 238 455 336 C421 304 382 286 326 286 C270 286 230 304 198 334 Z" fill="#20252c"/>
  <path d="M166 774 C180 608 230 496 320 496 C410 496 460 608 474 774 Z" fill="#fffdf9"/>
  <path d="M244 526 L320 638 L396 526 C442 582 463 666 474 774 L166 774 C177 666 198 582 244 526 Z" fill="#115a49"/>
  <circle cx="270" cy="346" r="10" fill="#20252c"/>
  <circle cx="370" cy="346" r="10" fill="#20252c"/>
  <path d="M282 400 C306 424 342 424 366 400" fill="none" stroke="#20252c" stroke-width="10" stroke-linecap="round"/>
  <rect x="78" y="72" width="142" height="18" fill="#fffdf9" opacity=".82"/>
  <rect x="78" y="108" width="230" height="18" fill="#fffdf9" opacity=".62"/>
  <rect x="452" y="752" width="94" height="94" fill="#c9912e"/>
</svg>
